<svg viewBox="0 0 300.33334 146.9" xmlns="http://www.w3.org/2000/svg" xmlns:xlink="http://www.w3.org/1999/xlink"><linearGradient id="a" gradientUnits="userSpaceOnUse" x1="150" x2="150" y1="146.88527" y2=".11465"><stop offset="0" stop-color="#eb5520"/><stop offset=".24727" stop-color="#eb511f"/><stop offset=".50344" stop-color="#eb441d"/><stop offset=".76272" stop-color="#eb301a"/><stop offset="1" stop-color="#eb1616"/></linearGradient><path d="m125.75628 40.43171-19.30217-19.30217a1.00256 1.00256 0 0 1 0-1.41781l19.304-19.304a.99988.99988 0 0 1 1.4145 0l19.304 19.304a1.00247 1.00247 0 0 1 0 1.41781l-19.30216 19.30217a1.00232 1.00232 0 0 1 -1.41817 0zm-5.11752 2.81249-16.99714-16.99714a1.00477 1.00477 0 0 0 -1.42074 0l-16.99714 16.99714a1.00455 1.00455 0 0 0 0 1.42111l17.00007 17.00008a1.00035 1.00035 0 0 0 1.41487 0l17.00008-17.00008a1.00522 1.00522 0 0 0 0-1.42111zm47.06824 0-16.99709-16.99714a1.00483 1.00483 0 0 0 -1.42079 0l-16.99712 16.99714a1.0052 1.0052 0 0 0 0 1.42111l16.99714 16.99714a1.00483 1.00483 0 0 0 1.42079 0l16.99707-16.99714a1.00522 1.00522 0 0 0 0-1.42111zm-72.90134 23.53724-14.70091-14.70091a1.00072 1.00072 0 0 0 -1.41519 0l-14.70056 14.70091a1.00033 1.00033 0 0 0 0 1.41487l14.70056 14.70091a1.00072 1.00072 0 0 0 1.41519 0l14.70091-14.70091a1.001 1.001 0 0 0 0-1.41487zm47.06787 0-14.70053-14.70091a1.00078 1.00078 0 0 0 -1.41524 0l-14.70056 14.70091a1.00035 1.00035 0 0 0 0 1.41487l14.70055 14.70091a1.00078 1.00078 0 0 0 1.41524 0l14.70054-14.70091a1.00033 1.00033 0 0 0 0-1.41487zm47.06824 0-14.70054-14.70091a1.00078 1.00078 0 0 0 -1.41524 0l-14.70049 14.70091a1.00024 1.00024 0 0 0 0 1.41487l14.7005 14.70091a1.00078 1.00078 0 0 0 1.41524 0l14.70054-14.70091a1.00024 1.00024 0 0 0 -.00001-1.41487zm-119.97251 23.53467-12.39918-12.39918a.99988.99988 0 0 0 -1.4145 0l-12.39914 12.39918a.99958.99958 0 0 0 0 1.41377l12.3995 12.39955a1.00012 1.00012 0 0 0 1.41414 0l12.39918-12.39955a.999.999 0 0 0 0-1.41377zm47.06861 0-12.39919-12.39918a1.00033 1.00033 0 0 0 -1.41487 0l-12.39918 12.39918a.99967.99967 0 0 0 0 1.41377l12.3996 12.39955a1.00006 1.00006 0 0 0 1.41409 0l12.39955-12.39955a.99967.99967 0 0 0 -0-1.41377zm47.06824 0-12.39955-12.39955a1.00012 1.00012 0 0 0 -1.41414 0l-12.39955 12.39955a.99976.99976 0 0 0 0 1.41377l12.39955 12.39955a1.00012 1.00012 0 0 0 1.41414 0l12.39955-12.39955a.99967.99967 0 0 0 0-1.41377zm47.06823 0-12.39955-12.39955a1.00011 1.00011 0 0 0 -1.41413 0l-12.39955 12.39955a.99967.99967 0 0 0 0 1.41377l12.39955 12.39955a1.00011 1.00011 0 0 0 1.41413 0l12.39955-12.39955a.99967.99967 0 0 0 0-1.41377zm-167.04334 23.53211-10.09339-10.09342a1.00254 1.00254 0 0 0 -1.4178 0l-10.09342 10.09342a1.00254 1.00254 0 0 0 0 1.4178l10.09342 10.09342a1.00254 1.00254 0 0 0 1.4178 0l10.09339-10.09344a1.00254 1.00254 0 0 0 0-1.41778zm47.06823 0-10.093-10.09342a1.003 1.003 0 0 0 -1.41818 0l-10.09342 10.09342a1.00254 1.00254 0 0 0 0 1.4178l10.09337 10.09342a1.003 1.003 0 0 0 1.41818 0l10.093-10.09342a1.00253 1.00253 0 0 0 .00008-1.4178zm47.06824 0-10.09302-10.09342a1.003 1.003 0 0 0 -1.41817 0l-10.09305 10.09342a1.00189 1.00189 0 0 0 0 1.4178l10.09305 10.09342a1.003 1.003 0 0 0 1.41817 0l10.09305-10.09344a1.00254 1.00254 0 0 0 0-1.41778zm47.06824 0-10.093-10.09342a1.00292 1.00292 0 0 0 -1.41811 0l-10.09311 10.09342a1.00254 1.00254 0 0 0 0 1.4178l10.09311 10.09342a1.00292 1.00292 0 0 0 1.41811 0l10.093-10.09342a1.00178 1.00178 0 0 0 .00003-1.4178zm47.06866 0-10.09344-10.09342a1.003 1.003 0 0 0 -1.41817 0l-10.093 10.09342a1.00244 1.00244 0 0 0 0 1.4178l10.093 10.09342a1.003 1.003 0 0 0 1.41817 0l10.09347-10.09344a1.00263 1.00263 0 0 0 0-1.41778zm-214.10791 23.53578-7.79457-7.79426a1 1 0 0 0 -1.41455 0l-7.79426 7.79426a.9999.9999 0 0 0 0 1.4145l7.79316 7.79315a1.00166 1.00166 0 0 0 1.41707 0l7.79315-7.79315a1.00055 1.00055 0 0 0 0-1.4145zm47.06829 0-7.79467-7.79426a.9999.9999 0 0 0 -1.4145 0l-7.79421 7.79426a.99979.99979 0 0 0 0 1.4145l7.79237 7.79242a1.00277 1.00277 0 0 0 1.41854 0l7.79247-7.79242a1.00064 1.00064 0 0 0 0-1.4145zm47.06819 0-7.79237-7.79242a1.00283 1.00283 0 0 0 -1.41859 0l-7.79058 7.79021a1.00387 1.00387 0 0 0 0 1.41891l7.79058 7.79022a1.00283 1.00283 0 0 0 1.41859 0l7.79237-7.79242a.9999.9999 0 0 0 0-1.4145zm47.066-.20255-7.79022-7.79022a1.00279 1.00279 0 0 0 -1.41854 0l-7.79242 7.79206a1.00033 1.00033 0 0 0 0 1.41487l7.79242 7.79242a1.00344 1.00344 0 0 0 1.41854 0l7.79028-7.79058a1.00279 1.00279 0 0 0 0-1.41856zm47.0686 0-7.79058-7.79022a1.00279 1.00279 0 0 0 -1.41854 0l-7.79242 7.79206a1.00033 1.00033 0 0 0 0 1.41487l7.79242 7.79242a1.00344 1.00344 0 0 0 1.41854 0l7.79062-7.79058a1.00344 1.00344 0 0 0 0-1.41856zm47.06824 0-7.79058-7.79022a1.00279 1.00279 0 0 0 -1.41854 0l-7.79242 7.79206a1.001 1.001 0 0 0 0 1.41487l7.79242 7.79242a1.00344 1.00344 0 0 0 1.41854 0l7.79062-7.79058a1.00333 1.00333 0 0 0 0-1.41856zm-78.39455-96.74827 19.3051-19.30511a1.00033 1.00033 0 0 0 0-1.41487l-19.3051-19.30547a1.00078 1.00078 0 0 0 -1.41524 0l-19.30511 19.30547a1.00035 1.00035 0 0 0 0 1.41487l19.30512 19.30511a1.00078 1.00078 0 0 0 1.41523 0zm23.53687 21.22927 16.99719-16.99714a1.00455 1.00455 0 0 0 0-1.42111l-16.99719-16.99714a1.00477 1.00477 0 0 0 -1.42074 0l-16.99714 16.99714a1.0052 1.0052 0 0 0 0 1.42111l16.99714 16.99714a1.00477 1.00477 0 0 0 1.42074 0zm23.53136 21.23477 14.70054-14.70091a1.00033 1.00033 0 0 0 0-1.41487l-14.70054-14.70091a1.00076 1.00076 0 0 0 -1.41523 0l-14.70055 14.70091a1.00035 1.00035 0 0 0 0 1.41487l14.70055 14.70091a1.00076 1.00076 0 0 0 1.41523 0zm23.53354 21.23221 12.39809-12.39808a1.00178 1.00178 0 0 0 0-1.4167l-12.39809-12.39809a1.00011 1.00011 0 0 0 -1.41413 0l-12.39915 12.39955a.999.999 0 0 0 0 1.41377l12.39918 12.39955a1.00011 1.00011 0 0 0 1.4141 0zm23.53614 21.23 10.09345-10.09343a1.00254 1.00254 0 0 0 0-1.4178l-10.09342-10.0934a1.00254 1.00254 0 0 0 -1.4178 0l-10.09337 10.09342a1.00265 1.00265 0 0 0 0 1.4178l10.09342 10.09342a1.00254 1.00254 0 0 0 1.41775 0zm23.53467 21.03113 7.79395-7.79426a.998.998 0 0 0 0-1.4112l-7.79395-7.79389a1.00322 1.00322 0 0 0 -1.4189 0l-7.79242 7.79206a1.001 1.001 0 0 0 0 1.41487l7.79242 7.79242a1.00387 1.00387 0 0 0 1.41893.00001z" fill="url(#a)"/></svg>